M48
; DRILL file {KiCad 5.1.5-52549c5~86~ubuntu16.04.1} date mar 21 abr 2020 01:11:42 CEST
; FORMAT={-:-/ absolute / inch / decimal}
; #@! TF.CreationDate,2020-04-21T01:11:42+02:00
; #@! TF.GenerationSoftware,Kicad,Pcbnew,5.1.5-52549c5~86~ubuntu16.04.1
; #@! TF.FileFunction,Plated,1,2,PTH
FMAT,2
INCH
T1C0.0157
T2C0.0197
T3C0.0433
T4C0.0630
T5C0.1260
%
G90
G05
T1
X5.38Y-3.19
X5.38Y-3.31
X5.4Y-3.14
X5.4Y-3.36
X5.46Y-3.14
X5.46Y-3.36
X5.52Y-3.14
X5.52Y-3.36
X5.54Y-3.19
X5.54Y-3.31
X5.62Y-3.14
X5.62Y-3.19
X5.62Y-3.31
X5.62Y-3.36
X5.68Y-3.14
X5.68Y-3.36
X5.74Y-3.14
X5.74Y-3.19
X5.74Y-3.31
X5.74Y-3.36
X5.84Y-2.86
X5.84Y-2.94
X5.84Y-3.02
X5.84Y-3.1
X5.84Y-3.18
X5.92Y-2.86
X5.92Y-2.94
X5.92Y-3.02
X5.92Y-3.1
X5.92Y-3.18
X6.0Y-2.86
X6.0Y-2.94
X6.0Y-3.02
X6.0Y-3.1
X6.0Y-3.18
X6.08Y-2.86
X6.08Y-2.94
X6.08Y-3.02
X6.08Y-3.1
X6.08Y-3.18
X6.16Y-2.86
X6.16Y-2.94
X6.16Y-3.02
X6.16Y-3.1
X6.16Y-3.18
X6.26Y-3.14
X6.26Y-3.19
X6.26Y-3.31
X6.26Y-3.36
X6.32Y-3.14
X6.32Y-3.36
X6.38Y-3.14
X6.38Y-3.19
X6.38Y-3.31
X6.38Y-3.36
X6.46Y-3.14
X6.46Y-3.19
X6.46Y-3.31
X6.46Y-3.36
X6.52Y-3.14
X6.52Y-3.36
X6.58Y-3.14
X6.58Y-3.19
X6.58Y-3.31
X6.58Y-3.36
T2
X6.7455Y-2.66
X6.7732Y-2.5932
X6.7732Y-2.7268
X6.84Y-2.5655
X6.84Y-2.7545
X6.9068Y-2.5932
X6.9068Y-2.7268
X6.9345Y-2.66
X5.0655Y-2.66
X5.0932Y-2.5932
X5.0932Y-2.7268
X5.16Y-2.5655
X5.16Y-2.7545
X5.2268Y-2.5932
X5.2268Y-2.7268
X5.2545Y-2.66
X5.0655Y-4.34
X5.0932Y-4.2732
X5.0932Y-4.4068
X5.16Y-4.2455
X5.16Y-4.4345
X5.2268Y-4.2732
X5.2268Y-4.4068
X5.2545Y-4.34
X6.7455Y-4.3468
X6.7732Y-4.28
X6.7732Y-4.4136
X6.84Y-4.2523
X6.84Y-4.4413
X6.9068Y-4.28
X6.9068Y-4.4136
X6.9345Y-4.3468
T3
X5.82Y-4.25
X5.92Y-4.25
X6.08Y-4.25
X6.18Y-4.25
T4
X6.0Y-3.83
T5
X6.84Y-2.66
X5.16Y-2.66
X5.16Y-4.34
X6.84Y-4.3468
T0
M30
